<svg version="1.1" xmlns="http://www.w3.org/2000/svg" viewBox="0 0 1074.1281110258092 647.3283835467905" width="2148.2562220516184" height="1294.656767093581">
  <!-- svg-source:excalidraw -->
  
  <defs>
    <style class="style-fonts">
      @font-face {
        font-family: "Virgil";
        src: url("https://excalidraw.com/Virgil.woff2");
      }
      @font-face {
        font-family: "Cascadia";
        src: url("https://excalidraw.com/Cascadia.woff2");
      }
    </style>
  </defs>
  <rect x="0" y="0" width="1074.1281110258092" height="647.3283835467905" fill="#ffffff"></rect><g transform="translate(10 10) rotate(0 302.8558044433593 120)"><text x="0" y="0" font-family="Virgil, Segoe UI Emoji" font-size="16px" fill="#000000" text-anchor="start" style="white-space: pre;" direction="ltr" dominant-baseline="text-before-edge">&gt; As a customer</text><text x="0" y="20" font-family="Virgil, Segoe UI Emoji" font-size="16px" fill="#000000" text-anchor="start" style="white-space: pre;" direction="ltr" dominant-baseline="text-before-edge">&gt; So that I can check if I want to order something</text><text x="0" y="40" font-family="Virgil, Segoe UI Emoji" font-size="16px" fill="#000000" text-anchor="start" style="white-space: pre;" direction="ltr" dominant-baseline="text-before-edge">&gt; I would like to see a list of dishes with prices.</text><text x="0" y="60" font-family="Virgil, Segoe UI Emoji" font-size="16px" fill="#000000" text-anchor="start" style="white-space: pre;" direction="ltr" dominant-baseline="text-before-edge"></text><text x="0" y="80" font-family="Virgil, Segoe UI Emoji" font-size="16px" fill="#000000" text-anchor="start" style="white-space: pre;" direction="ltr" dominant-baseline="text-before-edge">&gt; As a customer</text><text x="0" y="100" font-family="Virgil, Segoe UI Emoji" font-size="16px" fill="#000000" text-anchor="start" style="white-space: pre;" direction="ltr" dominant-baseline="text-before-edge">&gt; So that I can order the meal I want</text><text x="0" y="120" font-family="Virgil, Segoe UI Emoji" font-size="16px" fill="#000000" text-anchor="start" style="white-space: pre;" direction="ltr" dominant-baseline="text-before-edge">&gt; I would like to be able to select some number of several available dishes.</text><text x="0" y="140" font-family="Virgil, Segoe UI Emoji" font-size="16px" fill="#000000" text-anchor="start" style="white-space: pre;" direction="ltr" dominant-baseline="text-before-edge"></text><text x="0" y="160" font-family="Virgil, Segoe UI Emoji" font-size="16px" fill="#000000" text-anchor="start" style="white-space: pre;" direction="ltr" dominant-baseline="text-before-edge">&gt; As a customer</text><text x="0" y="180" font-family="Virgil, Segoe UI Emoji" font-size="16px" fill="#000000" text-anchor="start" style="white-space: pre;" direction="ltr" dominant-baseline="text-before-edge">&gt; So that I can verify that my order is correct</text><text x="0" y="200" font-family="Virgil, Segoe UI Emoji" font-size="16px" fill="#000000" text-anchor="start" style="white-space: pre;" direction="ltr" dominant-baseline="text-before-edge">&gt; I would like to see an itemised receipt with a grand total.</text><text x="0" y="220" font-family="Virgil, Segoe UI Emoji" font-size="16px" fill="#000000" text-anchor="start" style="white-space: pre;" direction="ltr" dominant-baseline="text-before-edge"></text></g><g stroke-linecap="round" transform="translate(298.0771548605244 26.90444388375562) rotate(0 24.473292991130222 12.06104307358359)"><path d="M6.03 0 M6.03 0 C15.15 1.25, 24.16 -1.89, 42.92 0 M6.03 0 C17.39 1, 28.11 0.4, 42.92 0 M42.92 0 C48.69 0.55, 49.96 1.22, 48.95 6.03 M42.92 0 C48.14 1.33, 49.93 1.45, 48.95 6.03 M48.95 6.03 C48 9.57, 48.12 12.77, 48.95 18.09 M48.95 6.03 C48.79 9.13, 48.85 12.92, 48.95 18.09 M48.95 18.09 C47.2 23.72, 47.06 24.63, 42.92 24.12 M48.95 18.09 C47.66 22.2, 46.25 25.96, 42.92 24.12 M42.92 24.12 C31.96 25.98, 22.79 23.46, 6.03 24.12 M42.92 24.12 C28.96 24.29, 15.14 23.57, 6.03 24.12 M6.03 24.12 C3.45 23.04, 1.78 23.52, 0 18.09 M6.03 24.12 C3.92 22.7, -1.57 20.51, 0 18.09 M0 18.09 C0.17 14.58, -0.79 8.11, 0 6.03 M0 18.09 C-0.01 13.75, -0.31 8.32, 0 6.03 M0 6.03 C1.33 0.69, 2.59 -0.7, 6.03 0 M0 6.03 C1.73 1.82, 1.02 -1.75, 6.03 0" stroke="#5f3dc4" stroke-width="1" fill="none"></path></g><g stroke-linecap="round" transform="translate(145.416893539924 107.18079817773048) rotate(0 21.946015601406543 10.905060747976762)"><path d="M5.45 0 M5.45 0 C14.26 -0.44, 23.1 -0.8, 38.44 0 M5.45 0 C14.35 0.88, 22.29 -0.44, 38.44 0 M38.44 0 C40.71 -1.39, 45.35 3.28, 43.89 5.45 M38.44 0 C41.41 0.49, 45.77 0.48, 43.89 5.45 M43.89 5.45 C43.36 7.85, 44.87 9.68, 43.89 16.36 M43.89 5.45 C44.12 8.29, 44.37 11.47, 43.89 16.36 M43.89 16.36 C43.03 18.47, 42.24 22.64, 38.44 21.81 M43.89 16.36 C41.86 21.91, 41.21 22.47, 38.44 21.81 M38.44 21.81 C26.49 20.77, 15.54 20.12, 5.45 21.81 M38.44 21.81 C28.79 21.43, 20.24 21.96, 5.45 21.81 M5.45 21.81 C2.4 21.49, -1.16 21.3, 0 16.36 M5.45 21.81 C2.84 21, -2.01 21.87, 0 16.36 M0 16.36 C-0.93 13.74, -0.62 11.31, 0 5.45 M0 16.36 C0.37 11.96, -0.05 7.73, 0 5.45 M0 5.45 C1.1 0.63, 1.48 -1.77, 5.45 0 M0 5.45 C0.63 1.16, 1.47 1.17, 5.45 0" stroke="#5f3dc4" stroke-width="1" fill="none"></path></g><g stroke-linecap="round" transform="translate(236.42358758915032 127.4484333338666) rotate(0 25.60103758053907 11.746898258380526)"><path d="M5.87 0 M5.87 0 C16.7 -1.59, 29.71 -0.51, 45.33 0 M5.87 0 C19.52 0.67, 31.49 -0.65, 45.33 0 M45.33 0 C50.87 -1.53, 52.6 2.4, 51.2 5.87 M45.33 0 C47.43 -0.37, 50.05 1.59, 51.2 5.87 M51.2 5.87 C52.2 9.68, 51.31 13.86, 51.2 17.62 M51.2 5.87 C50.61 10.21, 50.96 14.13, 51.2 17.62 M51.2 17.62 C52.22 21.08, 48.49 21.75, 45.33 23.49 M51.2 17.62 C50.83 22.79, 47.97 25.47, 45.33 23.49 M45.33 23.49 C32.05 22.87, 21.53 22.22, 5.87 23.49 M45.33 23.49 C36.54 23.75, 26.11 24.07, 5.87 23.49 M5.87 23.49 C1.44 24.5, -0.45 23.18, 0 17.62 M5.87 23.49 C0.73 24.92, -1.48 22.05, 0 17.62 M0 17.62 C0.19 14.54, -1.01 11.73, 0 5.87 M0 17.62 C0.06 14.56, -0.37 11.69, 0 5.87 M0 5.87 C1.05 2.51, 0.59 -1.29, 5.87 0 M0 5.87 C-1.25 3.76, 1.5 -0.48, 5.87 0" stroke="#5f3dc4" stroke-width="1" fill="none"></path></g><g stroke-linecap="round" transform="translate(263.5741709435564 187.75011898475998) rotate(0 24.718608324350612 11.903970665982058)"><path d="M5.95 0 M5.95 0 C16.08 -1.02, 24 0.2, 43.49 0 M5.95 0 C15.04 0.59, 24.62 0.34, 43.49 0 M43.49 0 C47 1.64, 48.37 3.22, 49.44 5.95 M43.49 0 C45.97 0.51, 48.5 2.05, 49.44 5.95 M49.44 5.95 C48.44 9.5, 48.88 12.09, 49.44 17.86 M49.44 5.95 C49.01 10.14, 49.75 14.54, 49.44 17.86 M49.44 17.86 C48.07 20.53, 46.36 25.37, 43.49 23.81 M49.44 17.86 C48.98 21.34, 47.76 25.85, 43.49 23.81 M43.49 23.81 C33.94 22.34, 21.21 23.9, 5.95 23.81 M43.49 23.81 C31.04 24.61, 17.61 25.13, 5.95 23.81 M5.95 23.81 C2.38 25.72, 0.55 22.03, 0 17.86 M5.95 23.81 C3.88 25.93, -1.53 20.6, 0 17.86 M0 17.86 C0.32 12.8, 0.19 9.53, 0 5.95 M0 17.86 C-0.14 15.64, 0.55 12.01, 0 5.95 M0 5.95 C-0.17 3.53, 2.57 -0.61, 5.95 0 M0 5.95 C-0.71 0.14, 2.9 -1.71, 5.95 0" stroke="#c92a2a" stroke-width="1" fill="none"></path></g><g stroke-linecap="round" transform="translate(142.5295850136755 186.5076585920466) rotate(0 25.53220809855634 12.371658171761965)"><path d="M6.19 0 M6.19 0 C19.41 0.95, 32.09 -1.64, 44.88 0 M6.19 0 C17.81 0.75, 30.5 0.26, 44.88 0 M44.88 0 C49.62 1.93, 51.46 3.98, 51.06 6.19 M44.88 0 C49.63 0.23, 52.96 4.19, 51.06 6.19 M51.06 6.19 C52.15 9.31, 51.44 10.81, 51.06 18.56 M51.06 6.19 C50.42 10.08, 50.76 14.71, 51.06 18.56 M51.06 18.56 C52.54 21.06, 48.83 26.29, 44.88 24.74 M51.06 18.56 C51.74 21.98, 48.29 22.9, 44.88 24.74 M44.88 24.74 C30.18 23.37, 17.59 22.87, 6.19 24.74 M44.88 24.74 C31.69 25.57, 20.86 25.86, 6.19 24.74 M6.19 24.74 C0.98 22.81, 0.58 23.78, 0 18.56 M6.19 24.74 C1.05 23.5, -0.69 22.96, 0 18.56 M0 18.56 C0.69 13.79, -0.74 11.06, 0 6.19 M0 18.56 C0.18 13.78, 0.21 10.32, 0 6.19 M0 6.19 C1.75 1.58, 0.59 -1.23, 6.19 0 M0 6.19 C1.32 1.57, 1.94 -0.34, 6.19 0" stroke="#5f3dc4" stroke-width="1" fill="none"></path></g><g stroke-linecap="round" transform="translate(205.23500795842608 208.5260333924606) rotate(0 64.48969490076365 12.816402516880942)"><path d="M6.41 0 M6.41 0 C47.36 0.44, 92.56 1.26, 122.57 0 M6.41 0 C39.01 0.5, 70.42 0.57, 122.57 0 M122.57 0 C127.97 1.27, 129.94 2.13, 128.98 6.41 M122.57 0 C127.93 0.7, 131.04 -0.08, 128.98 6.41 M128.98 6.41 C129.5 8.93, 128.41 12.79, 128.98 19.22 M128.98 6.41 C128.99 11.12, 129.01 16.05, 128.98 19.22 M128.98 19.22 C127.04 22.56, 127.39 26.36, 122.57 25.63 M128.98 19.22 C129.57 24.31, 127.45 27.46, 122.57 25.63 M122.57 25.63 C98.16 26.62, 69.81 23.35, 6.41 25.63 M122.57 25.63 C85.95 25.83, 49.89 27.28, 6.41 25.63 M6.41 25.63 C3.46 27.06, 0.04 25.14, 0 19.22 M6.41 25.63 C0.92 23.8, -1.57 24.33, 0 19.22 M0 19.22 C1.2 15.44, 0.05 8.67, 0 6.41 M0 19.22 C0.22 15.5, -0.36 12.5, 0 6.41 M0 6.41 C-1.41 0.74, 0.64 1.36, 6.41 0 M0 6.41 C-1.46 3.98, 2.26 -0.48, 6.41 0" stroke="#c92a2a" stroke-width="1" fill="none"></path></g><g stroke-linecap="round" transform="translate(397.14925231131303 205.5610710916675) rotate(0 48.39595012639893 13.889436492406048)"><path d="M6.94 0 M6.94 0 C33.73 -1.35, 62.82 -1.75, 89.85 0 M6.94 0 C25.41 0.24, 45.21 -0.77, 89.85 0 M89.85 0 C96.45 0.45, 98.66 3.87, 96.79 6.94 M89.85 0 C95.87 2.05, 97.95 3.28, 96.79 6.94 M96.79 6.94 C97.05 10.8, 95.54 14.65, 96.79 20.83 M96.79 6.94 C96.91 9.25, 97.34 12.33, 96.79 20.83 M96.79 20.83 C95.11 24.49, 94.17 29.57, 89.85 27.78 M96.79 20.83 C98.16 26.73, 92.74 28.32, 89.85 27.78 M89.85 27.78 C70.47 27.03, 48.44 25.93, 6.94 27.78 M89.85 27.78 C71.01 28.23, 51.52 28.46, 6.94 27.78 M6.94 27.78 C0.71 29.51, -1.63 26.49, 0 20.83 M6.94 27.78 C1.69 27.95, -2.1 24.57, 0 20.83 M0 20.83 C-1.26 16.57, -0.96 13.84, 0 6.94 M0 20.83 C-0.24 16.65, 0.38 11.02, 0 6.94 M0 6.94 C0.32 2.31, 4.01 1.72, 6.94 0 M0 6.94 C-0.53 1.57, 1.64 0.48, 6.94 0" stroke="#c92a2a" stroke-width="1" fill="none"></path></g><g stroke-linecap="round" transform="translate(145.7839841104984 210.7003390797089) rotate(0 18.43041744475181 9.699662384023384)"><path d="M4.85 0 M4.85 0 C13.91 1.67, 17.93 1.54, 32.01 0 M4.85 0 C10.86 -0.84, 16.32 -0.2, 32.01 0 M32.01 0 C34.63 0.24, 34.99 0.92, 36.86 4.85 M32.01 0 C33.58 0.95, 37.73 1.75, 36.86 4.85 M36.86 4.85 C37.37 6.72, 36.99 9.78, 36.86 14.55 M36.86 4.85 C36.79 8.44, 37.05 12.76, 36.86 14.55 M36.86 14.55 C36.8 17.77, 36.93 18.69, 32.01 19.4 M36.86 14.55 C38.6 16.93, 36.01 20.62, 32.01 19.4 M32.01 19.4 C21.84 18.48, 12.83 17.4, 4.85 19.4 M32.01 19.4 C23.02 18.98, 15.97 19.3, 4.85 19.4 M4.85 19.4 C2.63 19.14, 0.79 16.3, 0 14.55 M4.85 19.4 C1.63 21.14, 2.21 17.74, 0 14.55 M0 14.55 C-0.17 11.81, 0.84 10.25, 0 4.85 M0 14.55 C0.33 12.84, -0.36 10.01, 0 4.85 M0 4.85 C-0.41 2.71, 3.45 1.9, 4.85 0 M0 4.85 C0.92 1.55, 2.23 -1.52, 4.85 0" stroke="#5f3dc4" stroke-width="1" fill="none"></path></g><g stroke-linecap="round" transform="translate(481.1494580664031 123.92577574316232) rotate(0 69.19833741178525 14.540669283473136)"><path d="M7.27 0 M7.27 0 C47.16 -1.74, 82.6 -0.48, 131.13 0 M7.27 0 C52.21 -0.23, 96.65 -0.62, 131.13 0 M131.13 0 C137.48 1.92, 138.36 1.33, 138.4 7.27 M131.13 0 C134.87 -0.22, 137.88 1.56, 138.4 7.27 M138.4 7.27 C137.71 12.6, 139.29 19.65, 138.4 21.81 M138.4 7.27 C138.71 11.06, 139.01 13.8, 138.4 21.81 M138.4 21.81 C138.34 27.19, 134.65 29.73, 131.13 29.08 M138.4 21.81 C138.48 28.57, 136.31 29.45, 131.13 29.08 M131.13 29.08 C98.19 31.58, 62.6 29.73, 7.27 29.08 M131.13 29.08 C102.01 29.16, 72.59 29.02, 7.27 29.08 M7.27 29.08 C3.27 29.58, -0.31 25.54, 0 21.81 M7.27 29.08 C3.68 29.6, 0.87 25.33, 0 21.81 M0 21.81 C1.38 16.31, 0.63 11.39, 0 7.27 M0 21.81 C-0.4 15.85, 0.17 10.23, 0 7.27 M0 7.27 C-0.01 1.67, 2.05 1.9, 7.27 0 M0 7.27 C-0.39 2.69, 4.17 1.86, 7.27 0" stroke="#c92a2a" stroke-width="1" fill="none"></path></g><g stroke-linecap="round" transform="translate(198.98740882461186 47.46151583592149) rotate(0 55.62128087606982 9.719075827659509)"><path d="M4.86 0 M4.86 0 C36.41 -1.37, 69.68 0.2, 106.38 0 M4.86 0 C39.01 -0.6, 74.39 -0.79, 106.38 0 M106.38 0 C110.45 -0.63, 113.2 2.34, 111.24 4.86 M106.38 0 C109.42 -1.1, 110.68 2.34, 111.24 4.86 M111.24 4.86 C111.06 8.68, 111.08 10.77, 111.24 14.58 M111.24 4.86 C111.77 8.33, 111.43 12.6, 111.24 14.58 M111.24 14.58 C113.15 18.72, 108.69 21.38, 106.38 19.44 M111.24 14.58 C109.46 17.51, 109.04 19.69, 106.38 19.44 M106.38 19.44 C77.12 18.12, 45.9 19.52, 4.86 19.44 M106.38 19.44 C75.57 19.55, 42.64 19.32, 4.86 19.44 M4.86 19.44 C0.25 21.13, -1.86 18.4, 0 14.58 M4.86 19.44 C3.2 18.63, 1.11 19.71, 0 14.58 M0 14.58 C0.57 12.85, -0.23 11.35, 0 4.86 M0 14.58 C-0.07 11.05, 0.09 7.3, 0 4.86 M0 4.86 C-1.52 1.82, 1.36 1.77, 4.86 0 M0 4.86 C-0.9 1.18, 1.07 -0.48, 4.86 0" stroke="#c92a2a" stroke-width="1" fill="none"></path></g><g stroke-linecap="round" transform="translate(351.4676545769497 50.197046530105695) rotate(0 25.939890414915453 10.275006259058188)"><path d="M5.14 0 M5.14 0 C16.7 -0.31, 28.62 0.59, 46.74 0 M5.14 0 C20.01 -0.12, 36.76 -0.52, 46.74 0 M46.74 0 C49.01 -1.21, 51.04 3.21, 51.88 5.14 M46.74 0 C50.43 0.35, 50.24 1.56, 51.88 5.14 M51.88 5.14 C51.36 7.03, 52.82 9.03, 51.88 15.41 M51.88 5.14 C51.6 8.55, 52.14 12.93, 51.88 15.41 M51.88 15.41 C49.88 17.44, 49.12 21.79, 46.74 20.55 M51.88 15.41 C53.82 18.22, 49.08 19.03, 46.74 20.55 M46.74 20.55 C31.62 21.12, 14.22 18.73, 5.14 20.55 M46.74 20.55 C31.97 19.93, 16.39 19.46, 5.14 20.55 M5.14 20.55 C0.8 20.58, -1.25 16.92, 0 15.41 M5.14 20.55 C2.39 20.77, -1.65 19.64, 0 15.41 M0 15.41 C0.36 11.97, -0.76 7.32, 0 5.14 M0 15.41 C0.31 12.27, -0.05 8.61, 0 5.14 M0 5.14 C-0.73 0.63, 0.97 -0.91, 5.14 0 M0 5.14 C0.12 2.71, 1.34 1.94, 5.14 0" stroke="#c92a2a" stroke-width="1" fill="none"></path></g><g stroke-linecap="round" transform="translate(145.20158080141402 28.919912304889976) rotate(0 23.082584483377218 10.635037395583083)"><path d="M5.32 0 M5.32 0 C14.25 0.28, 23.76 -1.67, 40.85 0 M5.32 0 C17.38 0.82, 28.99 -0.44, 40.85 0 M40.85 0 C45.15 0.43, 44.74 0.3, 46.17 5.32 M40.85 0 C45.21 0.64, 45.26 3.27, 46.17 5.32 M46.17 5.32 C45.77 8.55, 45.76 12.46, 46.17 15.95 M46.17 5.32 C46.66 8.78, 45.71 11.97, 46.17 15.95 M46.17 15.95 C47.72 21.27, 44.29 23.14, 40.85 21.27 M46.17 15.95 C47.61 20.29, 43.95 23.05, 40.85 21.27 M40.85 21.27 C30.94 21.64, 26.68 20.6, 5.32 21.27 M40.85 21.27 C29.74 22.13, 17.14 21.81, 5.32 21.27 M5.32 21.27 C0.91 22.43, 0.13 17.74, 0 15.95 M5.32 21.27 C0.5 20.05, 1.76 19.41, 0 15.95 M0 15.95 C0.53 13.52, -0.97 8.62, 0 5.32 M0 15.95 C0.24 13.47, 0.3 11.74, 0 5.32 M0 5.32 C0.94 2.83, 3.42 -0.09, 5.32 0 M0 5.32 C1.16 2.12, 3.39 -1.07, 5.32 0" stroke="#5f3dc4" stroke-width="1" fill="none"></path></g><g transform="translate(11.859460757291004 248.1435772782969) rotate(0 524.7983331312812 29.55702051339341)"><text x="0" y="0" font-family="Virgil, Segoe UI Emoji" font-size="15.763744273809834px" fill="#000000" text-anchor="start" style="white-space: pre;" direction="ltr" dominant-baseline="text-before-edge">&gt; As a customer</text><text x="0" y="19.704680342262293" font-family="Virgil, Segoe UI Emoji" font-size="15.763744273809834px" fill="#000000" text-anchor="start" style="white-space: pre;" direction="ltr" dominant-baseline="text-before-edge">&gt; So that I am reassured that my order will be delivered on time</text><text x="0" y="39.409360684524586" font-family="Virgil, Segoe UI Emoji" font-size="15.763744273809834px" fill="#000000" text-anchor="start" style="white-space: pre;" direction="ltr" dominant-baseline="text-before-edge">&gt; I would like to receive a text such as "Thank you! Your order was placed and will be delivered before 18:52" after I have ordered.</text></g><g stroke-linecap="round" transform="translate(396.4327197552881 262.36127745400506) rotate(0 66.66047087098718 12.405190483497108)"><path d="M6.2 0 M6.2 0 C52.2 0.64, 99.57 1.32, 127.12 0 M6.2 0 C45.27 0.83, 85.36 0.56, 127.12 0 M127.12 0 C129.44 1.78, 134.84 1.1, 133.32 6.2 M127.12 0 C133.52 -1.71, 132.01 2.43, 133.32 6.2 M133.32 6.2 C132.68 9.42, 133.27 12.69, 133.32 18.61 M133.32 6.2 C133.08 9.52, 133.05 13.56, 133.32 18.61 M133.32 18.61 C133.23 23.98, 130.29 25.14, 127.12 24.81 M133.32 18.61 C132.07 22.41, 130.55 24.1, 127.12 24.81 M127.12 24.81 C81.75 24.87, 33.37 24.68, 6.2 24.81 M127.12 24.81 C89.81 24.75, 54.86 24.53, 6.2 24.81 M6.2 24.81 C0.12 26.52, 1.58 21.97, 0 18.61 M6.2 24.81 C0.24 22.87, -1.01 22.4, 0 18.61 M0 18.61 C-0.95 15.21, -0.18 9.89, 0 6.2 M0 18.61 C0.18 14.89, -0.41 11.76, 0 6.2 M0 6.2 C-0.6 3.09, 2.56 -0.29, 6.2 0 M0 6.2 C-1.81 1.39, 0.58 0.45, 6.2 0" stroke="#c92a2a" stroke-width="1" fill="none"></path></g><g stroke-linecap="round" transform="translate(293.3791015005771 264.2673246473721) rotate(0 22.48959202321862 10.746223481862842)"><path d="M5.37 0 M5.37 0 C11.89 -0.56, 20.34 -1.83, 39.61 0 M5.37 0 C16.12 -0.05, 27.8 0.5, 39.61 0 M39.61 0 C42.9 -1.58, 44.39 0.5, 44.98 5.37 M39.61 0 C43.64 -0.65, 43.59 2.9, 44.98 5.37 M44.98 5.37 C44.64 7.81, 44.6 11.93, 44.98 16.12 M44.98 5.37 C44.84 8.46, 45.16 11.74, 44.98 16.12 M44.98 16.12 C44.36 21.59, 41.19 21.95, 39.61 21.49 M44.98 16.12 C45.91 20.68, 44.02 21.08, 39.61 21.49 M39.61 21.49 C31.35 21.2, 23.12 22.07, 5.37 21.49 M39.61 21.49 C26.11 21.73, 12.61 21.42, 5.37 21.49 M5.37 21.49 C0.69 19.79, -1.53 19.61, 0 16.12 M5.37 21.49 C4.06 21.75, -0.05 19.98, 0 16.12 M0 16.12 C-0.74 13.56, 0.49 10.49, 0 5.37 M0 16.12 C0.44 13.23, -0.32 8.95, 0 5.37 M0 5.37 C1.4 1, 1.77 -0.6, 5.37 0 M0 5.37 C-2.25 0.31, 0.12 0.87, 5.37 0" stroke="#c92a2a" stroke-width="1" fill="none"></path></g><g stroke-linecap="round" transform="translate(139.85264132071768 262.68032869872775) rotate(0 43.27433072348106 12.549908881511953)"><path d="M6.27 0 M6.27 0 C28.8 -1.62, 52 0, 80.27 0 M6.27 0 C35.91 -0.51, 64.31 0.44, 80.27 0 M80.27 0 C82.88 0.19, 87.25 1.52, 86.55 6.27 M80.27 0 C84.79 -1.89, 87.03 3.58, 86.55 6.27 M86.55 6.27 C87.33 10.7, 86.44 15.74, 86.55 18.82 M86.55 6.27 C86.71 8.46, 86.09 11.43, 86.55 18.82 M86.55 18.82 C85.92 21.9, 84.53 24.58, 80.27 25.1 M86.55 18.82 C87.89 21.16, 83.68 26.27, 80.27 25.1 M80.27 25.1 C62.77 24.8, 41.32 24.5, 6.27 25.1 M80.27 25.1 C52.19 24.93, 22.95 25.43, 6.27 25.1 M6.27 25.1 C3.01 24.33, -1.04 21.13, 0 18.82 M6.27 25.1 C1 26.91, 1.67 23.97, 0 18.82 M0 18.82 C-0.62 14.91, -0.3 13.18, 0 6.27 M0 18.82 C-0.07 15.67, -0.09 11.87, 0 6.27 M0 6.27 C0.77 1.75, 3.61 0.08, 6.27 0 M0 6.27 C-1.64 4.2, 2.1 0.99, 6.27 0" stroke="#5f3dc4" stroke-width="1" fill="none"></path></g><g stroke-linecap="round" transform="translate(144.74977702224555 285.1491305658153) rotate(0 60.746429996012296 10.56444305508802)"><path d="M5.28 0 M5.28 0 C44.19 1.78, 83.76 0.99, 116.21 0 M5.28 0 C37.14 -0.45, 69.6 -0.9, 116.21 0 M116.21 0 C121.25 0.08, 120.07 3.59, 121.49 5.28 M116.21 0 C119.74 0.99, 122.73 2.09, 121.49 5.28 M121.49 5.28 C120.86 9.48, 120.46 14.28, 121.49 15.85 M121.49 5.28 C120.99 7.72, 121.16 9.94, 121.49 15.85 M121.49 15.85 C120.31 20.44, 117.74 21.56, 116.21 21.13 M121.49 15.85 C119.78 17.99, 117.57 22.56, 116.21 21.13 M116.21 21.13 C92.21 23.03, 72.7 23.35, 5.28 21.13 M116.21 21.13 C94.45 20.68, 71.23 21.94, 5.28 21.13 M5.28 21.13 C2.16 22.38, -1.23 20.73, 0 15.85 M5.28 21.13 C-0.19 20.5, 1.78 18.57, 0 15.85 M0 15.85 C-0.11 12.72, 0.14 9.49, 0 5.28 M0 15.85 C-0.44 13.72, -0.01 10.45, 0 5.28 M0 5.28 C-0.13 2.4, 2.76 0.81, 5.28 0 M0 5.28 C0.19 -0.46, 2.7 2.05, 5.28 0" stroke="#5f3dc4" stroke-width="1" fill="none"></path></g><g stroke-linecap="round" transform="translate(885.3867706093032 282.66773949741344) rotate(0 89.37067020825293 12.788164780682905)"><path d="M6.39 0 M6.39 0 C56.33 0.44, 106.06 -1.05, 172.35 0 M6.39 0 C67.09 1.26, 125.63 1.1, 172.35 0 M172.35 0 C177.25 1, 179.55 2.3, 178.74 6.39 M172.35 0 C174.39 0.93, 180.79 3.25, 178.74 6.39 M178.74 6.39 C179.25 8.67, 177.9 14.06, 178.74 19.18 M178.74 6.39 C178.62 10.87, 179.23 15.8, 178.74 19.18 M178.74 19.18 C179.29 24.59, 175.15 25.42, 172.35 25.58 M178.74 19.18 C180.88 24.64, 174.56 23.78, 172.35 25.58 M172.35 25.58 C109.85 23.68, 45.77 24.36, 6.39 25.58 M172.35 25.58 C121.42 24.67, 69.65 24.68, 6.39 25.58 M6.39 25.58 C1.17 25.08, -0.58 25.07, 0 19.18 M6.39 25.58 C3.72 23.95, 2.1 25.66, 0 19.18 M0 19.18 C-0.8 15.97, 0.56 13.84, 0 6.39 M0 19.18 C0.19 14.69, -0.03 10.9, 0 6.39 M0 6.39 C0.34 3.9, 2.89 1.91, 6.39 0 M0 6.39 C0 0.5, 3.21 1.59, 6.39 0" stroke="#c92a2a" stroke-width="1" fill="none"></path></g><g stroke-linecap="round" transform="translate(245.5065386213272 398.3400236702777) rotate(0 83.32814694284951 30.660266935582115)"><path d="M0.08 1.3 C64.94 1.07, 130.25 1.26, 168.48 0.04 M0.3 -0.9 C36.24 -2.41, 71.69 -2.25, 167.08 -0.83 M165.8 -0.72 C166.7 23.21, 164.64 46.67, 168.56 60.22 M167.01 0.96 C167.34 16.78, 168.11 32.26, 166.82 61.63 M165.68 62.16 C114.89 60.96, 65.21 59.4, -1.77 61.9 M165.83 60.63 C127.74 60.72, 87.84 60.19, -0.7 61.85 M-0.38 61.38 C-0.05 45.04, -1.7 32.65, 1.64 0.38 M0.18 60.65 C0.07 48.53, 0.1 35.94, -0.11 0" stroke="#000000" stroke-width="1" fill="none"></path></g><g transform="translate(288.43470692648134 419.00029060585973) rotate(0 40.39997863769531 10)"><text x="40.39997863769531" y="0" font-family="Virgil, Segoe UI Emoji" font-size="16px" fill="#000000" text-anchor="middle" style="white-space: pre;" direction="ltr" dominant-baseline="text-before-edge">MenuOrder</text></g><g stroke-linecap="round" transform="translate(243.5116212027068 459.4270732308288) rotate(0 84.5 47.5)"><path d="M-1 -1.96 C49.37 -0.18, 101.62 0.66, 170.67 -0.64 M-0.86 0.62 C59.35 -0.51, 119.47 -1.5, 168.86 -0.91 M168.68 1.13 C169.05 20.95, 167.63 41.66, 168.87 94.32 M168.28 -0.66 C169.8 38.23, 169.09 74.52, 169.46 95.49 M169.4 94.27 C117.47 93.99, 68.2 96.25, -0.99 95.77 M168.44 95.42 C126.27 95.79, 80.84 96.08, -0.18 95.11 M-1.48 94.52 C0.79 68.39, 1.14 41.64, -1.57 1.92 M0.79 94.81 C0.27 73.68, 0.49 53.07, -0.26 0.46" stroke="#000000" stroke-width="1" fill="none"></path></g><g transform="translate(248.5116212027068 464.4270732308288) rotate(0 64.15995025634766 40)"><text x="0" y="0" font-family="Virgil, Segoe UI Emoji" font-size="16px" fill="#000000" text-anchor="start" style="white-space: pre;" direction="ltr" dominant-baseline="text-before-edge">- show_menu</text><text x="0" y="20" font-family="Virgil, Segoe UI Emoji" font-size="16px" fill="#000000" text-anchor="start" style="white-space: pre;" direction="ltr" dominant-baseline="text-before-edge">- show_selected</text><text x="0" y="40" font-family="Virgil, Segoe UI Emoji" font-size="16px" fill="#000000" text-anchor="start" style="white-space: pre;" direction="ltr" dominant-baseline="text-before-edge">- show(receipt)</text><text x="0" y="60" font-family="Virgil, Segoe UI Emoji" font-size="16px" fill="#000000" text-anchor="start" style="white-space: pre;" direction="ltr" dominant-baseline="text-before-edge">- checkout</text></g><g stroke-linecap="round" transform="translate(19.387284570959537 347.3237018013175) rotate(0 84.44578140026948 30.775292294487087)"><path d="M1.01 1.99 C42.23 -0.02, 82.21 -0.21, 168.86 -0.77 M-0.03 0.36 C42.82 -0.04, 85.51 -0.36, 169.04 0.12 M167.68 1.93 C168.66 22.4, 169.86 40.78, 170.16 63.54 M169.12 -0.54 C169.04 21.22, 169.29 44.89, 169.7 60.79 M168.75 62.31 C110.79 64.17, 55.61 62.75, -0.69 63.52 M169.12 61.83 C119.8 60.67, 70.33 60.69, -0.41 62.15 M-1.22 60.82 C-0.15 39.93, 0.43 20.32, -1.96 1.72 M0.2 62.33 C-0.5 49.06, -0.58 34.55, 0.63 0.4" stroke="#000000" stroke-width="1" fill="none"></path></g><g transform="translate(34.97711656937361 368.09899409580464) rotate(0 68.85594940185547 10)"><text x="68.85594940185547" y="0" font-family="Virgil, Segoe UI Emoji" font-size="16px" fill="#000000" text-anchor="middle" style="white-space: pre;" direction="ltr" dominant-baseline="text-before-edge">OrderConfirmation</text></g><g stroke-linecap="round" transform="translate(19.23620648762153 411.0855201555098) rotate(0 85.40890418154845 25.44463946762204)"><path d="M0.6 -0.8 C40.1 -1.43, 77.81 -0.8, 169.67 -0.73 M-0.23 -0.51 C47.68 -0.44, 95.53 -1.26, 170.47 0.72 M170.95 1.43 C170.28 16.22, 171.32 32.25, 172.67 51.95 M170.87 -0.78 C169.61 14.93, 169.84 30.52, 171.5 51.1 M172.35 49.14 C120.45 51.31, 68.85 51.85, 1.38 51.59 M171.51 51.09 C118.25 50.73, 66.11 49.67, 0.62 50.4 M0.4 51.16 C-0.01 32.75, 1.31 18.45, -1.03 0.23 M-0.33 50.25 C0.39 30.48, -0.04 12.64, 0.64 -0.03" stroke="#000000" stroke-width="1" fill="none"></path></g><g transform="translate(28.221160473857594 426.5301596231319) rotate(0 76.4239501953125 10)"><text x="76.4239501953125" y="0" font-family="Virgil, Segoe UI Emoji" font-size="16px" fill="#000000" text-anchor="middle" style="white-space: pre;" direction="ltr" dominant-baseline="text-before-edge">- send(confirmation)</text></g><g stroke-linecap="round" transform="translate(13.41626668631011 533.6476152633662) rotate(0 92.04432227360428 30.538374391070874)"><path d="M0.19 -1.6 C52.71 3.25, 108.07 2.46, 183.2 -1.47 M0.28 0.67 C44.02 2.12, 87.16 1.09, 184.25 0.45 M182.42 1.23 C184.29 23.81, 185.12 45.54, 184.61 62.83 M184.26 0.11 C183.8 22.31, 185.02 44.07, 183.6 61.57 M185.66 60.41 C114.02 60.83, 43.14 62.57, 1.22 62.93 M183.63 61.64 C136.11 58.82, 88.39 60.29, 0.77 61.84 M0.26 61.56 C0.44 44.51, -0.14 29.51, -0.26 -1.42 M0.26 60.77 C0.66 43.39, -0.84 27.83, -0.18 0.55" stroke="#000000" stroke-width="1" fill="none"></path></g><g transform="translate(46.95662167475814 554.1859896544371) rotate(0 58.50396728515625 10)"><text x="58.50396728515625" y="0" font-family="Virgil, Segoe UI Emoji" font-size="16px" fill="#000000" text-anchor="middle" style="white-space: pre;" direction="ltr" dominant-baseline="text-before-edge">MenuFormatter</text></g><g stroke-linecap="round" transform="translate(13.958774349205214 595.9810590114549) rotate(0 91.96019924992754 20.673662267667794)"><path d="M0.98 -0.18 C65.85 -0.58, 135.7 1.02, 183.67 -0.44 M-0.23 -0.08 C56.45 -1.32, 113.24 -1.47, 184.79 0.75 M183.36 -1.02 C181.59 16.18, 184.07 31.47, 184.61 39.97 M183.35 -0.98 C184.69 9.39, 183.22 20.67, 183.25 42.2 M183.75 42.36 C116.89 39.63, 48.6 40.12, 1.99 41.43 M184.39 40.49 C140 40.52, 97.14 40.25, -0.16 41.79 M-0.46 40.13 C0.08 30.79, 0.6 18.9, -1.06 0.22 M0 41.46 C0.27 32.68, -0.37 22.57, 0.72 -0.27" stroke="#000000" stroke-width="1" fill="none"></path></g><g transform="translate(53.2070213896601 606.654721279123) rotate(0 52.711952209472656 10)"><text x="52.711952209472656" y="0" font-family="Virgil, Segoe UI Emoji" font-size="16px" fill="#000000" text-anchor="middle" style="white-space: pre;" direction="ltr" dominant-baseline="text-before-edge">- format(list)</text></g><g stroke-linecap="round"><g transform="translate(189.07887449462874 407.0922517254653) rotate(0 28.06366667119312 26.807204226011663)"><path d="M-0.46 1.72 C11.5 11.28, 24.79 22.66, 55.08 52.66 M-0.77 0.95 C12.65 11.1, 24.4 22.9, 56.9 50.51" stroke="#000000" stroke-width="1" fill="none"></path></g><g transform="translate(189.07887449462874 407.0922517254653) rotate(0 28.06366667119312 26.807204226011663)"><path d="M28.4 41.56 C33.94 41.71, 40.48 43.41, 55.8 52.2 M28.09 40.79 C35.69 42.06, 41.23 44.98, 57.62 50.04" stroke="#000000" stroke-width="1" fill="none"></path></g><g transform="translate(189.07887449462874 407.0922517254653) rotate(0 28.06366667119312 26.807204226011663)"><path d="M41.82 26.03 C44.01 30.04, 47.32 35.47, 55.8 52.2 M41.51 25.26 C46 29.97, 48.59 36.3, 57.62 50.04" stroke="#000000" stroke-width="1" fill="none"></path></g></g><mask></mask><g stroke-linecap="round"><g transform="translate(197.6113526104159 596.2214105076741) rotate(0 22.893757641665445 -20.2717812050646)"><path d="M0.15 1.07 C16.51 -14.38, 33.96 -29.68, 46.5 -41.5 M-0.71 0.24 C18.53 -16.62, 35.48 -31.76, 44.78 -41.61" stroke="#000000" stroke-width="1" fill="none"></path></g><g transform="translate(197.6113526104159 596.2214105076741) rotate(0 22.893757641665445 -20.2717812050646)"><path d="M32.13 -13.41 C36.22 -23.62, 41.44 -33.56, 46.25 -41.86 M31.27 -14.24 C37.84 -25.59, 42.2 -35.22, 44.53 -41.97" stroke="#000000" stroke-width="1" fill="none"></path></g><g transform="translate(197.6113526104159 596.2214105076741) rotate(0 22.893757641665445 -20.2717812050646)"><path d="M17.69 -27.98 C27.22 -32.61, 37.92 -37.02, 46.25 -41.86 M16.82 -28.81 C28.95 -34.46, 38.95 -38.4, 44.53 -41.97" stroke="#000000" stroke-width="1" fill="none"></path></g></g><mask></mask><g stroke-linecap="round"><g transform="translate(415.0161481264305 485.04510913500906) rotate(0 66.77092468650972 0.046063798595866956)"><path d="M0.43 0.79 C29.39 2.4, 56.31 1.82, 133.86 0.19 M-0.32 -0.88 C48.18 -0.51, 96.54 -1.75, 133.71 -1.65" stroke="#000000" stroke-width="1" fill="none"></path></g><g transform="translate(415.0161481264305 485.04510913500906) rotate(0 66.77092468650972 0.046063798595866956)"><path d="M106 9.55 C112.25 8.45, 116.4 5.8, 134.79 -0.61 M105.26 7.89 C115.38 4.91, 125.45 0.17, 134.64 -2.44" stroke="#000000" stroke-width="1" fill="none"></path></g><g transform="translate(415.0161481264305 485.04510913500906) rotate(0 66.77092468650972 0.046063798595866956)"><path d="M105.89 -10.97 C112.06 -7.6, 116.23 -5.79, 134.79 -0.61 M105.15 -12.63 C115.49 -8.11, 125.6 -5.34, 134.64 -2.44" stroke="#000000" stroke-width="1" fill="none"></path></g></g><mask></mask><g stroke-linecap="round" transform="translate(555.559968744298 396.34510625165694) rotate(0 74.02139364995566 22.99477100258622)"><path d="M-0.93 1.59 C58.35 1.62, 115.08 1.72, 146.05 0.35 M0.42 0.01 C40.42 0.35, 82.58 0.29, 147.9 0.55 M149.78 0.71 C149.2 16.85, 146.57 32.96, 146.36 44.65 M148.11 0.61 C148.68 13.6, 147.44 25.3, 147.94 46.24 M149.17 45.06 C106.94 48.09, 64.62 45.67, 1.61 44.53 M148.51 46.24 C112.98 45.54, 76.82 46.19, -0.7 45.92 M-0.56 47.1 C-1.48 31.85, 0.77 13.26, -0.93 1.8 M-0.2 45.22 C-0.02 33.13, -1.05 19.16, -0.58 -0.2" stroke="#000000" stroke-width="1" fill="none"></path></g><g transform="translate(592.4773813761873 409.3398772542432) rotate(0 37.103981018066406 10)"><text x="37.103981018066406" y="0" font-family="Virgil, Segoe UI Emoji" font-size="16px" fill="#000000" text-anchor="middle" style="white-space: pre;" direction="ltr" dominant-baseline="text-before-edge">MenuItem</text></g><g stroke-linecap="round" transform="translate(555.2131758711814 441.531187540896) rotate(0 73.90293469824752 47.359545533622736)"><path d="M0.3 -0.71 C39.19 -0.45, 73.93 2.75, 146.23 -0.11 M-0.64 0.12 C48.61 -1.25, 97.1 -1.56, 148.1 0.2 M146.38 -1.27 C149.28 21.99, 147.43 40.68, 146.24 94.73 M148.17 0.56 C148.38 24.55, 149.4 47.17, 148.14 94.59 M147.92 93.7 C102.77 94.65, 55.97 94.07, 1.88 96.5 M147.25 94.74 C105.86 96.32, 62.87 95.66, -0.09 95.35 M1.04 94.47 C1.47 70.76, -0.29 43.41, -0.07 -0.03 M0.36 94.63 C-0.96 57.62, -0.51 22.42, 0.39 0.97" stroke="#000000" stroke-width="1" fill="none"></path></g><g transform="translate(560.2131758711814 446.531187540896) rotate(0 49.27996826171881 30)"><text x="0" y="0" font-family="Virgil, Segoe UI Emoji" font-size="16px" fill="#000000" text-anchor="start" style="white-space: pre;" direction="ltr" dominant-baseline="text-before-edge">- item_name</text><text x="0" y="20" font-family="Virgil, Segoe UI Emoji" font-size="16px" fill="#000000" text-anchor="start" style="white-space: pre;" direction="ltr" dominant-baseline="text-before-edge">- price</text><text x="0" y="40" font-family="Virgil, Segoe UI Emoji" font-size="16px" fill="#000000" text-anchor="start" style="white-space: pre;" direction="ltr" dominant-baseline="text-before-edge">- availability</text></g></svg>